<?xml version="1.0" standalone="no"?>
<svg version="1.0" xmlns="http://www.w3.org/2000/svg"
     width="752.000000pt" height="752.000000pt" viewBox="0 0 752.000000 752.000000"
     preserveAspectRatio="xMidYMid meet">

    <g transform="translate(0.000000,752.000000) scale(0.100000,-0.100000)"
       fill="#2880CA" stroke="none">
        <path d="M2318 3933 l-3 -2078 -162 -3 -163 -2 0 -170 0 -170 1770 0 1770 0 0
170 0 170 -162 2 -163 3 -3 2078 -2 2077 -1440 0 -1440 0 -2 -2077z m632 1597
l0 -160 -160 0 -160 0 0 160 0 160 160 0 160 0 0 -160z m650 0 l0 -160 -160 0
-160 0 0 160 0 160 160 0 160 0 0 -160z m640 0 l0 -160 -160 0 -160 0 0 160 0
160 160 0 160 0 0 -160z m650 0 l0 -160 -160 0 -160 0 0 160 0 160 160 0 160
0 0 -160z m-1940 -650 l0 -160 -160 0 -160 0 0 160 0 160 160 0 160 0 0 -160z
m650 0 l0 -160 -160 0 -160 0 0 160 0 160 160 0 160 0 0 -160z m640 0 l0 -160
-160 0 -160 0 0 160 0 160 160 0 160 0 0 -160z m650 0 l0 -160 -160 0 -160 0
0 160 0 160 160 0 160 0 0 -160z m-1940 -640 l0 -160 -160 0 -160 0 0 160 0
160 160 0 160 0 0 -160z m650 0 l0 -160 -160 0 -160 0 0 160 0 160 160 0 160
0 0 -160z m640 0 l0 -160 -160 0 -160 0 0 160 0 160 160 0 160 0 0 -160z m650
0 l0 -160 -160 0 -160 0 0 160 0 160 160 0 160 0 0 -160z m-1940 -640 l0 -160
-160 0 -160 0 0 160 0 160 160 0 160 0 0 -160z m650 0 l0 -160 -160 0 -160 0
0 160 0 160 160 0 160 0 0 -160z m640 0 l0 -160 -160 0 -160 0 0 160 0 160
160 0 160 0 0 -160z m650 0 l0 -160 -160 0 -160 0 0 160 0 160 160 0 160 0 0
-160z m-1940 -645 l0 -166 -157 3 -158 3 -3 150 c-1 82 0 155 2 162 4 10 43
13 161 13 l155 0 0 -165z m650 0 l0 -165 -160 0 -160 0 0 165 0 165 160 0 160
0 0 -165z m640 0 l0 -165 -160 0 -160 0 0 165 0 165 160 0 160 0 0 -165z m645
0 l0 -160 -157 -3 -158 -3 0 166 0 166 158 -3 157 -3 0 -160z m-1195 -795 l0
-310 -205 0 -205 0 0 310 0 310 205 0 205 0 0 -310z m550 0 l0 -310 -205 0
-205 0 0 310 0 310 205 0 205 0 0 -310z"/>
    </g>
</svg>
