<?xml version="1.0" standalone="no"?>
<svg version="1.0" xmlns="http://www.w3.org/2000/svg"
     width="512.000000pt" height="512.000000pt" viewBox="0 0 512.000000 512.000000"
     preserveAspectRatio="xMidYMid meet">

    <g transform="translate(0.000000,512.000000) scale(0.100000,-0.100000)"
       fill="#E52626" stroke="none">
        <path d="M2423 4755 c-129 -29 -259 -122 -323 -232 l-34 -59 -51 7 c-185 25
-372 -95 -431 -275 -9 -28 -17 -52 -18 -53 -1 -1 -24 5 -52 12 -101 26 -197
-17 -240 -108 -28 -62 -30 -118 -5 -172 61 -131 231 -166 333 -68 l27 26 50
-52 c102 -105 265 -148 405 -107 31 9 56 19 56 23 0 3 -12 31 -27 62 -25 49
-28 68 -28 152 0 100 10 129 45 129 33 0 41 -23 28 -78 -31 -138 65 -283 226
-339 72 -25 194 -22 266 6 74 29 143 81 185 140 l35 49 58 -24 c113 -46 229
-41 342 16 70 35 153 123 188 197 23 51 26 71 26 163 1 98 -1 110 -31 172 -41
88 -113 160 -201 201 -60 28 -77 32 -157 32 l-90 0 2 -25 c2 -14 5 -50 9 -80
8 -76 -12 -134 -47 -138 -40 -5 -51 17 -38 75 10 40 9 59 -5 104 -18 62 -69
135 -121 174 -86 67 -260 98 -382 70z"/>
        <path d="M784 3630 c-48 -19 -54 -43 -54 -218 0 -160 0 -163 25 -187 l24 -25
249 0 c257 0 304 -6 322 -40 16 -31 11 -79 -10 -100 -19 -19 -33 -20 -265 -20
l-245 0 0 -1225 0 -1225 -110 0 c-126 0 -160 -11 -186 -62 -20 -38 -14 -101
13 -130 44 -50 -53 -48 2013 -48 2066 0 1969 -2 2013 48 27 29 33 92 13 130
-18 36 -46 53 -96 62 l-35 5 0 1093 c0 600 -1 1092 -3 1092 -2 0 -202 -142
-444 -315 -288 -206 -449 -315 -465 -315 -27 0 -83 50 -83 74 0 33 25 66 76
101 l54 37 0 199 c0 110 -3 199 -6 199 -3 0 -195 -136 -427 -302 -232 -165
-430 -303 -440 -306 -29 -7 -75 18 -87 49 -18 43 -5 74 45 110 l45 32 0 269 0
269 -72 -54 c-40 -29 -234 -169 -430 -311 l-358 -259 0 -562 c0 -554 0 -563
-21 -589 -27 -35 -86 -36 -117 -3 l-22 23 0 1035 0 1035 30 11 c17 6 34 23 40
38 5 14 10 96 10 180 0 148 -1 155 -24 182 l-24 28 -464 2 c-254 1 -473 -2
-484 -7z m1666 -1960 l0 -160 -160 0 -160 0 0 160 0 160 160 0 160 0 0 -160z
m870 0 l0 -160 -160 0 -160 0 0 160 0 160 160 0 160 0 0 -160z m840 0 l0 -160
-160 0 -160 0 0 160 0 160 160 0 160 0 0 -160z"/>
    </g>
</svg>
