<?xml version="1.0" standalone="no"?>
<svg version="1.0" xmlns="http://www.w3.org/2000/svg"
     width="1920.000000pt" height="1920.000000pt" viewBox="0 0 1920.000000 1920.000000"
     preserveAspectRatio="xMidYMid meet">

    <g transform="translate(0.000000,1920.000000) scale(0.100000,-0.100000)"
       fill="#2880CA" stroke="none">
        <path d="M5710 14489 c-90 -8 -185 -39 -254 -83 -69 -44 -135 -121 -270 -311
-62 -88 -204 -286 -316 -440 -887 -1221 -1230 -1700 -1262 -1760 -47 -90 -68
-174 -68 -271 0 -102 19 -179 74 -304 83 -189 233 -383 379 -489 202 -147 462
-225 752 -225 271 0 467 58 684 202 215 142 357 338 476 655 26 70 51 124 55
120 4 -4 21 -51 39 -103 142 -417 397 -693 747 -809 132 -43 255 -61 429 -61
286 0 468 50 675 186 219 143 387 382 498 708 41 119 52 143 52 112 0 -31 72
-240 112 -324 154 -325 435 -568 753 -651 226 -60 499 -52 725 20 232 73 475
253 603 447 71 106 141 261 184 404 l37 127 46 -132 c124 -358 301 -598 555
-750 252 -151 625 -195 952 -112 117 30 290 113 384 184 215 164 380 423 460
726 l23 87 17 -34 c9 -18 33 -81 53 -141 146 -440 430 -723 822 -822 327 -84
721 -35 980 121 227 137 444 405 526 650 18 55 23 91 23 179 0 126 -21 207
-85 335 -54 107 -103 177 -500 715 -412 559 -820 1120 -1010 1390 -167 237
-253 326 -371 384 -164 80 243 73 -4058 75 -2115 0 -3880 -2 -3921 -5z m2917
-772 c2 -3 -128 -1061 -160 -1299 -20 -145 -29 -184 -48 -212 -48 -71 45 -66
-1198 -66 -617 0 -1121 1 -1121 3 0 12 176 393 325 702 98 204 220 460 272
569 51 110 105 215 119 233 29 39 70 62 126 71 34 6 1679 5 1685 -1z m3680 -8
c49 -16 93 -75 152 -206 30 -65 104 -221 164 -348 60 -126 129 -270 152 -320
24 -49 84 -175 135 -280 92 -189 180 -388 180 -406 0 -16 -2156 -6 -2203 9
-86 30 -123 96 -153 279 -25 159 -163 1268 -157 1273 6 6 1551 18 1638 13 33
-2 75 -8 92 -14z"/>
        <path d="M10750 10549 c-132 -119 -343 -249 -515 -318 -345 -138 -756 -158
-1113 -55 -236 68 -437 181 -707 398 l-24 19 -70 -49 c-333 -231 -601 -362
-854 -416 -143 -30 -379 -30 -523 0 -254 54 -604 212 -925 418 l-66 42 -204
-135 c-445 -294 -578 -331 -1136 -320 l-293 5 -2 -2316 -3 -2317 -95 -13
c-136 -17 -194 -37 -234 -76 -50 -51 -61 -108 -61 -326 0 -247 16 -294 115
-346 33 -18 86 -19 885 -27 1229 -12 10149 1 10200 14 101 27 144 102 152 262
9 166 -28 367 -78 431 -26 33 -124 63 -239 74 l-85 7 -3 2298 c-2 1827 -5
2297 -15 2297 -103 1 -593 33 -671 45 -214 32 -368 92 -682 266 -110 61 -221
122 -247 135 l-48 25 -92 -74 c-336 -272 -728 -402 -1162 -384 -388 16 -731
153 -1060 422 -44 35 -82 65 -85 65 -3 -1 -30 -23 -60 -51z m-3080 -1530 c63
-14 116 -52 142 -102 l23 -42 3 -1687 2 -1688 -980 0 -980 0 2 1693 3 1692 25
44 c28 51 68 78 132 90 64 13 1573 13 1628 0z m5545 0 c57 -16 100 -64 112
-124 6 -31 9 -525 8 -1280 -1 -1102 -3 -1233 -17 -1260 -25 -46 -59 -73 -108
-84 -30 -7 -639 -11 -1846 -11 -1994 0 -1878 -4 -1927 63 -13 18 -27 41 -31
52 -4 10 -7 583 -7 1272 0 1134 2 1256 16 1287 9 19 25 42 35 51 50 46 -11 44
1910 45 1288 0 1826 -3 1855 -11z"/>
        <path d="M6587 7430 c-129 -22 -241 -120 -278 -241 -30 -98 -24 -223 14 -300
71 -146 239 -231 394 -201 172 35 294 155 325 320 9 50 8 72 -6 129 -48 198
-248 327 -449 293z"/>
    </g>
</svg>
